<?xml version="1.0" encoding="UTF-8"?>
<svg width="18px" height="20px" viewBox="0 0 18 20" version="1.1" xmlns="http://www.w3.org/2000/svg" xmlns:xlink="http://www.w3.org/1999/xlink">
    <!-- Generator: Sketch 51.3 (57544) - http://www.bohemiancoding.com/sketch -->
    <title>Shape</title>
    <desc>Created with Sketch.</desc>
    <defs></defs>
    <g id="Page-1" stroke="none" stroke-width="1" fill="none" fill-rule="evenodd">
        <g id="Componentes" transform="translate(-275.000000, -849.000000)" fill="#979EA2" fill-rule="nonzero">
            <g id="incluido-en-comunicación" transform="translate(49.000000, 849.000000)">
                <g id="Certificado-oficial-de-aceptación">
                    <g id="Button-/-Secondary-/-Icon-Left" transform="translate(226.000000, 0.000000)">
                        <path d="M14.5743256,1.5234375 L8.48336666,1.5234375 C8.13622921,0.634460469 7.24231848,0 6.19661458,0 C5.15091069,0 4.25699996,0.634460469 3.90986251,1.5234375 L2.94140625,1.5234375 C1.59513599,1.5234375 0.5,2.57476805 0.5,3.8671875 L0.5,17.65625 C0.5,18.9486695 1.59513599,20 2.94140625,20 L14.5743256,20 C15.9204368,20 17.0157318,18.9486695 17.0157318,17.65625 L17.0157318,3.8671875 C17.0157318,2.57476805 15.9204368,1.5234375 14.5743256,1.5234375 Z M15.3881276,17.65625 C15.3881276,18.0870056 15.0230293,18.4375 14.5743256,18.4375 L2.94140625,18.4375 C2.49270247,18.4375 2.12760417,18.0870056 2.12760417,17.65625 L2.12760417,3.8671875 C2.12760417,3.43643188 2.49270247,3.0859375 2.94140625,3.0859375 L5.3828125,3.0859375 L5.3828125,2.34375 C5.3828125,1.91299438 5.74791081,1.5625 6.19661458,1.5625 C6.64531836,1.5625 7.01041667,1.91299438 7.01041667,2.34375 L7.01041667,7.8515625 C7.01041667,8.28231812 6.64531836,8.6328125 6.19661458,8.6328125 C5.74791081,8.6328125 5.3828125,8.28231812 5.3828125,7.8515625 L5.3828125,4.6484375 L3.75520833,4.6484375 L3.75520833,7.8515625 C3.75520833,9.14398195 4.8505033,10.1953125 6.19661458,10.1953125 C7.54288485,10.1953125 8.63802083,9.14398195 8.63802083,7.8515625 L8.63802083,3.0859375 L14.5743256,3.0859375 C15.0230293,3.0859375 15.3881276,3.43643188 15.3881276,3.8671875 L15.3881276,17.65625 Z" id="Shape"></path>
                    </g>
                </g>
            </g>
        </g>
    </g>
</svg>