<?xml version="1.0" standalone="no"?>
<!DOCTYPE svg PUBLIC "-//W3C//DTD SVG 20010904//EN"
 "http://www.w3.org/TR/2001/REC-SVG-20010904/DTD/svg10.dtd">
<svg version="1.0" xmlns="http://www.w3.org/2000/svg"
 width="16.000000pt" height="15.000000pt" viewBox="0 0 16.000000 15.000000"
 preserveAspectRatio="xMidYMid meet">

<g transform="translate(0.000000,15.000000) scale(0.100000,-0.100000)"
fill="#000000" stroke="none">
<path d="M10 131 c0 -5 12 -16 26 -26 l26 -17 -22 -23 c-12 -13 -19 -29 -15
-35 5 -8 15 -3 30 16 l23 29 28 -25 c27 -24 25 -11 -3 21 -13 15 -11 20 14 43
15 14 24 26 19 26 -6 0 -20 -10 -32 -21 l-23 -21 -27 21 c-28 22 -44 27 -44
12z"/>
</g>
</svg>
