<?xml version="1.0" encoding="UTF-8"?>
<svg width="20px" height="20px" viewBox="0 0 20 20" version="1.1" xmlns="http://www.w3.org/2000/svg" xmlns:xlink="http://www.w3.org/1999/xlink">
    <!-- Generator: Sketch 51.3 (57544) - http://www.bohemiancoding.com/sketch -->
    <title>search</title>
    <desc>Created with Sketch.</desc>
    <defs></defs>
    <g id="Page-1" stroke="none" stroke-width="1" fill="none" fill-rule="evenodd" opacity="0.2">
        <g id="00_previa_1" transform="translate(-664.000000, -420.000000)" fill="#000000" fill-rule="nonzero">
            <g id="search" transform="translate(664.000000, 420.000000)">
                <path d="M19.8778906,18.6995312 L14.0680469,12.8896875 C15.17,11.5292578 15.8333203,9.79972656 15.8333203,7.91667969 C15.8333203,3.55144531 12.281875,0 7.91664062,0 C3.55140625,0 0,3.55144531 0,7.91667969 C0,12.2819141 3.55144531,15.8333594 7.91667969,15.8333594 C9.79972656,15.8333594 11.5292578,15.17 12.8896875,14.0680859 L18.6995312,19.8779297 C18.8623047,20.040625 19.1260547,20.040625 19.2888281,19.8779297 L19.8779297,19.2887891 C20.040625,19.1260547 20.040625,18.8622266 19.8778906,18.6995312 Z M7.91667969,14.1666797 C4.47023438,14.1666797 1.66667969,11.363125 1.66667969,7.91667969 C1.66667969,4.47023437 4.47023438,1.66667969 7.91667969,1.66667969 C11.363125,1.66667969 14.1666797,4.47023437 14.1666797,7.91667969 C14.1666797,11.363125 11.363125,14.1666797 7.91667969,14.1666797 Z" id="Shape"></path>
            </g>
        </g>
    </g>
</svg>