<svg width="18" height="18" viewBox="0 0 18 18" fill="none" xmlns="http://www.w3.org/2000/svg">
<mask id="mask0" mask-type="alpha" maskUnits="userSpaceOnUse" x="0" y="0" width="18" height="18">
<path fill-rule="evenodd" clip-rule="evenodd" d="M0 0H18V18H0V0Z" fill="white"/>
</mask>
<g mask="url(#mask0)">
<path fill-rule="evenodd" clip-rule="evenodd" d="M13.0569 12.0877C13.32 12.3508 13.32 12.7938 13.0569 13.0569C12.9185 13.1954 12.7385 13.2646 12.5723 13.2646C12.3923 13.2646 12.2123 13.1954 12.0738 13.0569L9 9.98308L5.91231 13.0569C5.77385 13.1954 5.60769 13.2646 5.42769 13.2646C5.24769 13.2646 5.06769 13.1954 4.92923 13.0569C4.66615 12.7938 4.66615 12.3508 4.92923 12.0877L8.01692 9L4.92923 5.91231C4.66615 5.64923 4.66615 5.20615 4.92923 4.94308C5.20615 4.66615 5.64923 4.66615 5.91231 4.94308L9 8.03077L12.0738 4.94308C12.3508 4.66615 12.78 4.66615 13.0569 4.94308C13.32 5.20615 13.32 5.64923 13.0569 5.91231L9.96923 9L13.0569 12.0877ZM9 0C4.02923 0 0 4.04308 0 9C0 13.9569 4.02923 18 9 18C13.9569 18 18 13.9569 18 9C18 4.04308 13.9569 0 9 0Z" fill="#979EA2"/>
</g>
</svg>
