<?xml version="1.0" encoding="UTF-8"?>
<svg width="16px" height="16px" viewBox="0 0 16 16" version="1.1" xmlns="http://www.w3.org/2000/svg" xmlns:xlink="http://www.w3.org/1999/xlink">
    <!-- Generator: Sketch 51.3 (57544) - http://www.bohemiancoding.com/sketch -->
    <title>Icon (Left)</title>
    <desc>Created with Sketch.</desc>
    <defs>
        <path d="M9.619,12.006 L6.38,12.006 C6.167,12.006 5.995,11.805 5.995,11.558 C5.995,11.311 6.167,11.11 6.38,11.11 L7,11 L7,8 L6.38,7.884 C6.167,7.884 5.995,7.683 5.995,7.436 C5.995,7.189 6.167,6.988 6.38,6.988 L8.894,6.988 C8.971,6.988 8.996,6.956 9.007,6.93 C9.004,6.945 9,6.959 9,7 L9,11 L9.619,11.11 C9.832,11.11 10.005,11.311 10.005,11.558 C10.005,11.805 9.832,12.006 9.619,12.006 L9.619,12.006 Z M7,4 L7.98,4 C7.987,4 7.993,3.996 8,3.996 C8.007,3.996 8.013,4 8.02,4 L9,4 L9,4.94 C9.001,4.962 9.012,4.98 9.012,5.001 C9.012,5.023 9.001,5.041 9,5.062 L9,6 L8.033,6 C8.021,6.001 8.011,6.007 8,6.007 C7.988,6.007 7.978,6.001 7.967,6 L7,6 L7,5.061 C6.998,5.04 6.987,5.023 6.987,5.001 C6.987,4.98 6.998,4.962 7,4.941 L7,4 Z M8,0 C3.581,0 0,3.582 0,8 C0,12.418 3.581,16 8,16 C12.418,16 16,12.418 16,8 C16,3.582 12.418,0 8,0 L8,0 Z" id="path-1"></path>
        <linearGradient x1="50%" y1="3.03188073%" x2="50%" y2="97.783801%" id="linearGradient-3">
            <stop stop-color="#F85359" offset="0%"></stop>
            <stop stop-color="#DC151D" offset="100%"></stop>
        </linearGradient>
    </defs>
    <g id="Page-1" stroke="none" stroke-width="1" fill="none" fill-rule="evenodd">
        <g id="00_previa_0" transform="translate(-248.000000, -352.000000)">
            <g id="Icon/Info" transform="translate(248.000000, 352.000000)">
                <mask id="mask-2" fill="white">
                    <use xlink:href="#path-1"></use>
                </mask>
                <g id="Info-Icon"></g>
                <g id="UI/Color/Gradient/Red" mask="url(#mask-2)" fill="url(#linearGradient-3)" fill-rule="evenodd">
                    <rect id="Base" x="0" y="0" width="16" height="16"></rect>
                </g>
            </g>
        </g>
    </g>
</svg>