<svg width="210" height="210" viewBox="0 0 210 210" fill="none" xmlns="http://www.w3.org/2000/svg">
<path d="M26.2787 148.104C20.0976 148.104 15.0691 143.076 15.0691 136.895V35.3596C15.0691 29.1785 20.0976 24.15 26.2787 24.15H183.722C189.903 24.15 194.932 29.1785 194.932 35.3596V136.895C194.932 143.076 189.903 148.104 183.722 148.104H26.2787Z" fill="#63BCE7"/>
<path d="M188.033 127.051C188.033 129.422 186.093 131.362 183.721 131.362H26.2786C23.9071 131.362 21.967 129.422 21.967 127.051V35.3596C21.967 32.9881 23.9071 31.048 26.2786 31.048H183.722C186.094 31.048 188.034 32.9881 188.034 35.3596V127.051H188.033Z" fill="#F46275"/>
<path d="M42.2551 46.2394H102.318V53.007H42.2551V46.2394Z" fill="#F8AF23"/>
<path d="M98.0955 68.798H74.7707V62.0304H98.0955V68.798Z" fill="#9E9E9E"/>
<path d="M65.5791 68.798H42.2543V62.0304H65.5791V68.798Z" fill="#63BCE7"/>
<path d="M42.2551 77.8214H102.318V84.589H42.2551V77.8214Z" fill="#F8AF23"/>
<path d="M98.0955 100.38H74.7707V93.6124H98.0955V100.38Z" fill="#9E9E9E"/>
<path d="M65.5791 100.38H42.2543V93.6124H65.5791V100.38Z" fill="#63BCE7"/>
<path d="M42.2551 109.403H102.318V116.171H42.2551V109.403Z" fill="#F8AF23"/>
<path d="M36.7811 127.051V35.3596C36.7811 32.9881 38.7211 31.048 41.0926 31.048H26.2786C23.9071 31.048 21.967 32.9881 21.967 35.3596V127.052C21.967 129.423 23.9071 131.363 26.2786 131.363H41.0926C38.7211 131.362 36.7811 129.422 36.7811 127.051V127.051Z" fill="#F43075"/>
<path d="M173.219 127.051V35.3596C173.219 32.9881 171.279 31.048 168.907 31.048H183.721C186.093 31.048 188.033 32.9881 188.033 35.3596V127.052C188.033 129.423 186.093 131.363 183.721 131.363H168.907C171.279 131.362 173.219 129.422 173.219 127.051Z" fill="#F48875"/>
<path d="M79.3669 148.104H130.633V163.704H79.3669V148.104Z" fill="#F8AF23"/>
<path d="M79.3669 148.104H94.181V163.704H79.3669V148.104Z" fill="#F87023"/>
<path d="M115.82 148.104H130.634V163.704H115.82V148.104Z" fill="#F8D323"/>
<path d="M105 143.425C107.039 143.425 108.691 141.772 108.691 139.734C108.691 137.695 107.039 136.042 105 136.042C102.961 136.042 101.309 137.695 101.309 139.734C101.309 141.772 102.961 143.425 105 143.425Z" fill="#F8AF23"/>
<path d="M146.579 176.379H63.4199V167.807C63.4199 165.542 65.2566 163.705 67.5215 163.705H142.478C144.742 163.705 146.579 165.542 146.579 167.807V176.379Z" fill="#9E9E9E"/>
<path d="M82.3355 163.705H67.5215C65.2566 163.705 63.4199 165.542 63.4199 167.807V176.379H78.234V167.807C78.234 165.541 80.0706 163.705 82.3355 163.705Z" fill="#707070"/>
<path d="M127.664 163.705H142.478C144.743 163.705 146.58 165.542 146.58 167.807V176.379H131.766V167.807C131.766 165.541 129.929 163.705 127.664 163.705Z" fill="#CECECE"/>
<path d="M141.137 124.839C167.037 124.839 188.033 103.843 188.033 77.9437C188.033 52.0439 167.037 31.048 141.137 31.048C115.238 31.048 94.2417 52.0439 94.2417 77.9437C94.2417 103.843 115.238 124.839 141.137 124.839Z" fill="#F46275"/>
<path d="M141.137 112.838C160.409 112.838 176.032 97.2153 176.032 77.9436C176.032 58.672 160.409 43.0492 141.137 43.0492C121.866 43.0492 106.243 58.672 106.243 77.9436C106.243 97.2153 121.866 112.838 141.137 112.838Z" fill="#F8AF23"/>
<path d="M141.137 176.379C134.232 176.379 128.635 170.781 128.635 163.876V146.874C128.635 139.969 134.233 134.372 141.137 134.372C148.043 134.372 153.64 139.97 153.64 146.874V163.876C153.641 170.781 148.043 176.379 141.137 176.379Z" fill="#F8AF23"/>
<path d="M149.181 80.5334H116.625V73.5369C116.625 72.1777 117.727 71.076 119.086 71.076H149.181V80.5334Z" fill="#63BCE7"/>
<path d="M165.649 75.8043C165.649 81.3045 161.19 85.7629 155.69 85.7629C150.19 85.7629 145.732 81.3045 145.732 75.8043C145.732 70.3041 150.19 65.8457 155.69 65.8457C161.19 65.8465 165.649 70.3049 165.649 75.8043V75.8043ZM155.691 71.076C153.079 71.076 150.963 73.1932 150.963 75.8043C150.963 78.4153 153.08 80.5326 155.691 80.5326C158.303 80.5326 160.419 78.4153 160.419 75.8043C160.419 73.1932 158.302 71.076 155.691 71.076Z" fill="#63BCE7"/>
<path d="M119.289 80.5334H125.517V90.0409H119.289V80.5334Z" fill="#63BCE7"/>
<path d="M129.229 80.5334H135.457V88.2551H129.229V80.5334Z" fill="#63BCE7"/>
<path d="M26.2787 149.335H78.1363V162.474H67.5215C64.5815 162.474 62.1895 164.866 62.1895 167.806V175.148H22.7226C22.0426 175.148 21.4921 175.699 21.4921 176.379C21.4921 177.059 22.0426 177.609 22.7226 177.609H63.4199H146.579H187.277C187.957 177.609 188.508 177.059 188.508 176.379C188.508 175.699 187.957 175.148 187.277 175.148H148.96C152.527 172.665 154.871 168.541 154.871 163.876V149.335H183.722C190.582 149.335 196.162 143.754 196.162 136.895V35.3596C196.162 28.5001 190.582 22.9196 183.722 22.9196H26.2787C19.4192 22.9196 13.8386 28.5001 13.8386 35.3596V136.895C13.8386 143.754 19.4192 149.335 26.2787 149.335V149.335ZM80.5973 149.335H127.404V162.474H80.5973V149.335ZM64.6504 175.148V167.806C64.6504 166.223 65.9383 164.935 67.5215 164.935H79.366H127.457C127.782 169.162 130.019 172.855 133.313 175.148H64.6504ZM152.409 163.876C152.409 170.092 147.353 175.148 141.137 175.148C134.922 175.148 129.865 170.092 129.865 163.876V146.874C129.865 140.658 134.922 135.602 141.137 135.602C147.353 135.602 152.409 140.658 152.409 146.874V163.876ZM16.2996 35.3596C16.2996 29.8569 20.776 25.3805 26.2787 25.3805H183.722C189.225 25.3805 193.701 29.8569 193.701 35.3596V136.895C193.701 142.397 189.225 146.874 183.722 146.874H154.871C154.871 139.716 149.366 133.828 142.368 133.203V132.593H183.722C186.778 132.593 189.264 130.107 189.264 127.051V35.3596C189.264 32.3039 186.778 29.8176 183.722 29.8176H26.2787C23.223 29.8176 20.7366 32.3039 20.7366 35.3596V127.051C20.7366 130.107 23.223 132.593 26.2787 132.593H139.908V133.203C132.91 133.828 127.405 139.717 127.405 146.874H79.3676H26.2787C20.776 146.874 16.2996 142.397 16.2996 136.895V35.3596ZM186.802 62.7818C182.022 48.4247 170.657 37.0585 156.299 32.2785H183.721C185.42 32.2785 186.802 33.6607 186.802 35.3596V62.7818ZM186.802 77.9437C186.802 103.123 166.317 123.609 141.137 123.609C115.958 123.609 95.4728 103.123 95.4728 77.9437C95.4728 52.7642 115.958 32.2793 141.137 32.2793C166.317 32.2793 186.802 52.7633 186.802 77.9437ZM93.0398 79.0519C93.0726 80.5039 93.1653 81.941 93.3244 83.3585H43.4855V79.0519H93.0398ZM94.1505 67.5675H76.0003V63.2609H95.3096C94.8576 64.6694 94.4729 66.1065 94.1505 67.5675ZM97.9494 99.1496H76.0003V94.8429H96.0823C96.636 96.3146 97.2595 97.7509 97.9494 99.1496V99.1496ZM101.103 51.272C100.992 51.4377 100.888 51.6092 100.779 51.7765H43.4855V47.4699H101.088V51.1662C101.088 51.2031 101.099 51.2359 101.103 51.272ZM103.549 47.9415V46.2394C103.549 45.5594 102.998 45.0089 102.318 45.0089H42.2551C41.575 45.0089 41.0246 45.5594 41.0246 46.2394V53.007C41.0246 53.687 41.575 54.2374 42.2551 54.2374H99.2807C98.0888 56.3333 97.0495 58.5244 96.1791 60.7999H74.7698C74.0898 60.7999 73.5393 61.3504 73.5393 62.0304V68.798C73.5393 69.478 74.0898 70.0285 74.7698 70.0285H93.6731C93.3171 72.1719 93.1071 74.363 93.0455 76.591H42.2551C41.575 76.591 41.0246 77.1414 41.0246 77.8214V84.589C41.0246 85.269 41.575 85.8195 42.2551 85.8195H93.6673C94.0381 88.0622 94.5574 90.2549 95.2276 92.382H74.7698C74.0898 92.382 73.5393 92.9324 73.5393 93.6124V100.38C73.5393 101.06 74.0898 101.61 74.7698 101.61H98.0946C98.4629 101.61 98.7894 101.446 99.0149 101.189C107.039 115.672 122.313 125.593 139.906 126.038V130.132H26.2787C24.5798 130.132 23.1976 128.75 23.1976 127.051V35.3596C23.1976 33.6607 24.5798 32.2785 26.2787 32.2785H125.976C117.06 35.2464 109.298 40.7523 103.549 47.9415V47.9415ZM142.368 126.038C163.071 125.514 180.558 111.861 186.802 93.1047V127.051C186.802 128.75 185.42 130.132 183.721 130.132H142.368V126.038Z" fill="#3F3679"/>
<path d="M42.2551 70.0285H65.5799C66.2599 70.0285 66.8104 69.4781 66.8104 68.798V62.0305C66.8104 61.3504 66.2599 60.8 65.5799 60.8H42.2551C41.5751 60.8 41.0247 61.3504 41.0247 62.0305V68.798C41.0247 69.4781 41.5751 70.0285 42.2551 70.0285V70.0285ZM43.4856 63.2609H64.3494V67.5676H43.4856V63.2609Z" fill="#3F3679"/>
<path d="M42.2551 101.61H65.5799C66.2599 101.61 66.8104 101.06 66.8104 100.38V93.6124C66.8104 92.9324 66.2599 92.382 65.5799 92.382H42.2551C41.5751 92.382 41.0247 92.9324 41.0247 93.6124V100.38C41.0247 101.06 41.5751 101.61 42.2551 101.61V101.61ZM43.4856 94.8429H64.3494V99.1495H43.4856V94.8429Z" fill="#3F3679"/>
<path d="M42.2551 117.401H102.318C102.998 117.401 103.549 116.851 103.549 116.171V109.403C103.549 108.723 102.998 108.173 102.318 108.173H42.2551C41.5751 108.173 41.0247 108.723 41.0247 109.403V116.171C41.0247 116.851 41.5751 117.401 42.2551 117.401V117.401ZM43.4856 110.634H101.088V114.941H43.4856V110.634Z" fill="#3F3679"/>
<path d="M105 144.656C107.714 144.656 109.922 142.448 109.922 139.734C109.922 137.019 107.714 134.812 105 134.812C102.286 134.812 100.078 137.019 100.078 139.734C100.078 142.448 102.286 144.656 105 144.656ZM105 137.273C106.357 137.273 107.461 138.377 107.461 139.734C107.461 141.091 106.357 142.195 105 142.195C103.643 142.195 102.539 141.091 102.539 139.734C102.539 138.377 103.643 137.273 105 137.273Z" fill="#3F3679"/>
<path d="M22.7226 184.62H7.81592C7.13588 184.62 6.58545 185.17 6.58545 185.85C6.58545 186.53 7.13588 187.08 7.81592 187.08H22.7226C23.4027 187.08 23.9531 186.53 23.9531 185.85C23.9531 185.17 23.4027 184.62 22.7226 184.62Z" fill="#3F3679"/>
<path d="M202.184 184.62H187.277C186.597 184.62 186.047 185.17 186.047 185.85C186.047 186.53 186.597 187.08 187.277 187.08H202.184C202.864 187.08 203.415 186.53 203.415 185.85C203.415 185.17 202.864 184.62 202.184 184.62Z" fill="#3F3679"/>
<path d="M175.374 184.62H34.6262C33.9462 184.62 33.3958 185.17 33.3958 185.85C33.3958 186.53 33.9462 187.08 34.6262 187.08H175.373C176.053 187.08 176.603 186.53 176.603 185.85C176.603 185.17 176.053 184.62 175.374 184.62Z" fill="#3F3679"/>
<path d="M7.81592 177.609H14.2168C14.8969 177.609 15.4473 177.059 15.4473 176.379C15.4473 175.699 14.8969 175.148 14.2168 175.148H7.81592C7.13588 175.148 6.58545 175.699 6.58545 176.379C6.58545 177.059 7.13588 177.609 7.81592 177.609V177.609Z" fill="#3F3679"/>
<path d="M194.553 176.379C194.553 177.059 195.103 177.609 195.783 177.609H202.184C202.864 177.609 203.415 177.059 203.415 176.379C203.415 175.699 202.864 175.148 202.184 175.148H195.783C195.103 175.148 194.553 175.699 194.553 176.379Z" fill="#3F3679"/>
<path d="M141.137 114.069C161.057 114.069 177.262 97.8633 177.262 77.9436C177.262 58.0248 161.057 41.8187 141.137 41.8187C121.217 41.8187 105.012 58.024 105.012 77.9436C105.012 97.8625 121.218 114.069 141.137 114.069ZM141.137 44.2797C159.699 44.2797 174.801 59.3808 174.801 77.9436C174.801 96.5065 159.699 111.608 141.137 111.608C122.575 111.608 107.473 96.5057 107.473 77.9436C107.473 59.3816 122.575 44.2797 141.137 44.2797Z" fill="#3F3679"/>
<path d="M116.625 81.7639H118.058V90.0408C118.058 90.7209 118.609 91.2713 119.289 91.2713H125.517C126.197 91.2713 126.747 90.7209 126.747 90.0408V81.7639H127.999V88.255C127.999 88.935 128.549 89.4855 129.23 89.4855H135.457C136.137 89.4855 136.688 88.935 136.688 88.255V81.7639H146.239C148.223 84.8999 151.713 86.9934 155.692 86.9934C161.862 86.9934 166.881 81.9739 166.881 75.8043C166.881 69.6347 161.862 64.6152 155.692 64.6152C151.713 64.6152 148.223 66.7087 146.239 69.8447H119.087C117.052 69.8447 115.396 71.5009 115.396 73.5361V80.5326C115.395 81.2126 115.946 81.7639 116.625 81.7639V81.7639ZM124.286 88.8104H120.519V81.7639H124.286V88.8104ZM134.226 87.0237H130.459V81.7631H134.226V87.0237ZM155.691 67.077C160.504 67.077 164.419 70.9924 164.419 75.8051C164.419 80.6179 160.504 84.5333 155.691 84.5333C150.878 84.5333 146.963 80.6179 146.963 75.8051C146.963 70.9924 150.878 67.077 155.691 67.077V67.077ZM117.856 73.537C117.856 72.8586 118.408 72.3065 119.086 72.3065H145.07C144.706 73.4082 144.502 74.582 144.502 75.8043C144.502 77.0266 144.706 78.2004 145.07 79.3029H135.456H129.229H125.516H119.288H117.855V73.537H117.856Z" fill="#3F3679"/>
<path d="M155.691 81.7639C158.977 81.7639 161.65 79.0904 161.65 75.8043C161.65 72.5189 158.977 69.8455 155.691 69.8455C152.405 69.8455 149.732 72.5189 149.732 75.8043C149.732 79.0904 152.405 81.7639 155.691 81.7639ZM155.691 72.3065C157.62 72.3065 159.189 73.8757 159.189 75.8043C159.189 77.7337 157.62 79.3029 155.691 79.3029C153.762 79.3029 152.193 77.7337 152.193 75.8043C152.193 73.8757 153.762 72.3065 155.691 72.3065Z" fill="#3F3679"/>
</svg>
